<?xml version="1.0" encoding="UTF-8" ?>
<!DOCTYPE svg PUBLIC "-//W3C//DTD SVG 1.1//EN" "http://www.w3.org/Graphics/SVG/1.1/DTD/svg11.dtd">
<svg width="450pt" height="322pt" viewBox="0 0 450 322" version="1.1" xmlns="http://www.w3.org/2000/svg">
<g id="#bec7ccff">
</g>
<g id="#3f5664ff">
<path fill="#3f5664" opacity="1.00" d=" M 210.65 19.68 C 226.32 11.68 247.16 16.02 258.33 29.61 C 262.16 34.18 264.51 39.77 266.14 45.46 C 273.30 43.34 281.02 42.65 288.25 44.87 C 299.15 48.05 308.03 57.05 311.43 67.84 C 313.10 73.53 312.49 79.55 313.39 85.36 C 345.27 85.69 377.16 85.40 409.04 85.64 C 412.36 85.26 416.13 88.36 415.17 91.86 C 414.43 94.54 411.53 95.50 409.03 95.34 C 287.34 95.33 165.64 95.38 43.95 95.31 C 40.15 95.97 36.87 91.47 39.09 88.18 C 40.35 85.61 43.47 85.50 45.96 85.54 C 76.99 85.68 108.02 85.55 139.05 85.49 C 140.45 85.30 142.50 85.79 143.00 84.01 C 144.01 80.43 143.35 76.63 143.82 72.97 C 145.42 58.53 157.57 46.05 171.94 43.95 C 177.85 42.80 183.82 44.00 189.66 44.97 C 192.59 34.05 200.53 24.66 210.65 19.68 M 208.00 32.98 C 203.36 37.70 199.82 44.21 200.44 51.00 C 204.10 57.47 209.65 63.90 208.55 71.90 C 208.10 76.00 202.13 77.78 199.68 74.34 C 197.73 70.83 198.25 66.41 195.97 63.01 C 191.03 54.98 180.49 51.73 171.57 53.83 C 166.29 55.38 161.34 58.52 158.24 63.14 C 154.06 69.13 153.40 76.94 154.68 83.96 C 155.01 85.98 157.52 85.24 158.94 85.48 C 204.98 85.48 251.02 85.49 297.07 85.45 C 298.40 85.40 299.76 85.37 301.08 85.05 C 303.55 76.94 302.07 67.25 296.08 60.98 C 289.70 54.33 279.38 51.55 270.62 54.65 C 265.06 56.48 259.92 60.81 258.66 66.74 C 257.77 70.64 256.55 74.71 252.79 76.80 C 250.58 75.43 247.33 74.14 247.37 71.05 C 246.72 63.51 251.96 57.49 254.86 51.03 C 256.07 44.12 252.17 37.30 247.17 32.78 C 236.67 22.81 218.36 22.80 208.00 32.98 Z" />
</g>
<g id="#3f565eff">
<path fill="#3f565e" opacity="1.00" d=" M 100.23 53.33 C 104.15 51.44 109.57 54.50 109.45 59.02 C 110.15 63.85 104.52 68.09 100.15 65.75 C 95.29 63.55 95.33 55.41 100.23 53.33 Z" />
</g>
<g id="#3c5360ff">
<path fill="#3c5360" opacity="1.00" d=" M 347.42 53.64 C 352.05 50.79 358.47 55.95 357.15 61.06 C 356.17 65.61 349.87 68.02 346.38 64.68 C 342.57 61.95 343.20 55.63 347.42 53.64 Z" />
</g>
<g id="#415664ff">
<path fill="#415664" opacity="1.00" d=" M 71.32 129.30 C 80.20 127.31 89.91 128.44 97.73 133.23 C 103.63 136.96 108.40 142.55 110.93 149.07 C 111.66 151.11 112.11 153.46 111.33 155.55 C 109.70 158.40 104.91 158.95 103.03 156.07 C 101.17 153.17 100.15 149.78 97.99 147.06 C 89.68 135.97 70.79 135.05 61.89 145.88 C 57.13 151.10 55.79 159.10 58.68 165.56 C 61.51 172.30 68.50 176.28 75.53 177.16 C 83.30 178.04 91.55 177.63 98.67 181.40 C 106.81 185.82 112.96 194.55 112.91 204.01 C 113.51 213.22 109.36 222.40 102.38 228.37 C 90.90 238.79 72.82 239.54 59.41 232.57 C 52.50 228.11 46.23 221.31 44.68 213.01 C 43.55 208.35 50.14 205.71 53.12 208.96 C 55.59 212.21 56.78 216.33 59.69 219.29 C 69.18 230.30 88.45 229.66 97.63 218.59 C 102.38 213.17 103.84 204.93 100.68 198.36 C 98.17 192.51 92.09 189.08 86.04 188.04 C 77.92 186.59 69.21 187.26 61.69 183.37 C 51.98 178.69 45.62 167.81 46.75 157.02 C 47.47 143.62 58.34 131.97 71.32 129.30 Z" />
</g>
<g id="#3f5866ff">
<path fill="#3f5866" opacity="1.00" d=" M 176.99 130.55 C 182.83 128.70 189.02 129.59 195.04 129.37 C 197.74 129.46 200.56 129.06 203.18 129.89 C 205.94 130.81 206.93 134.86 204.94 136.94 C 202.35 138.79 198.47 138.64 196.55 141.38 C 195.63 144.49 196.09 147.81 195.96 151.01 C 195.70 173.00 195.85 194.98 195.87 216.97 C 196.01 219.34 195.82 221.91 196.94 224.09 C 199.17 226.10 202.33 226.57 204.68 228.42 C 206.78 230.86 205.19 235.19 201.89 235.42 C 194.63 235.79 187.32 235.68 180.05 235.48 C 176.31 235.59 174.25 230.46 176.95 227.89 C 179.34 226.35 182.31 226.07 184.75 224.60 C 185.88 222.61 185.70 220.21 185.80 218.01 C 185.71 193.63 185.91 169.26 185.77 144.88 C 185.80 142.77 185.25 139.96 182.85 139.37 C 179.92 138.51 176.88 137.44 175.39 134.52 C 175.92 133.20 176.46 131.87 176.99 130.55 Z" />
</g>
<g id="#405662ff">
<path fill="#405662" opacity="1.00" d=" M 232.46 135.05 C 231.76 131.84 234.88 129.23 237.90 129.35 C 244.57 129.21 251.26 129.04 257.93 129.33 C 261.47 129.34 264.23 133.86 261.85 136.76 C 259.02 138.96 254.59 138.27 252.37 141.41 C 244.67 150.70 237.21 160.19 229.24 169.25 C 226.25 172.88 222.64 176.35 221.32 180.99 C 221.15 185.39 224.82 188.47 227.36 191.60 C 235.66 201.37 243.62 211.41 251.53 221.50 C 253.71 225.14 257.98 225.89 261.50 227.61 C 264.76 229.74 262.86 235.68 258.91 235.51 C 251.57 235.72 244.21 235.70 236.87 235.52 C 232.92 235.58 231.25 229.58 234.37 227.37 C 236.22 226.18 238.47 225.90 240.52 225.19 C 237.32 219.11 232.51 214.14 228.26 208.80 C 222.74 201.96 216.82 195.46 211.32 188.62 C 209.30 185.95 206.98 182.27 208.98 178.95 C 212.00 173.85 216.25 169.63 219.88 164.99 C 226.53 156.45 233.64 148.27 239.85 139.40 C 237.36 138.38 232.81 138.59 232.46 135.05 Z" />
</g>
<g id="#3f5766ff">
<path fill="#3f5766" opacity="1.00" d=" M 311.07 135.84 C 309.14 133.03 311.96 129.36 315.06 129.41 C 320.38 129.11 325.71 129.36 331.03 129.16 C 333.59 129.25 336.44 128.81 338.70 130.32 C 340.87 131.65 341.28 134.80 340.02 136.88 C 338.16 138.56 335.54 138.94 333.25 139.76 C 342.08 149.37 350.10 159.68 358.74 169.44 C 361.23 171.96 365.67 171.81 368.09 169.26 C 373.17 164.24 377.26 158.34 381.92 152.96 C 385.67 148.51 389.72 144.28 392.62 139.20 C 390.08 138.52 386.33 138.80 385.37 135.69 C 383.95 132.61 386.75 129.19 389.97 129.37 C 397.01 129.19 404.08 129.15 411.12 129.32 C 414.01 129.21 415.49 131.97 416.92 134.00 C 415.21 139.84 407.78 137.41 404.85 141.93 C 395.62 153.01 386.11 163.87 376.98 175.05 C 373.87 179.26 368.86 183.17 369.41 188.97 C 369.42 198.30 369.48 207.64 369.41 216.97 C 369.49 219.28 369.28 221.70 370.10 223.92 C 372.21 225.90 375.24 226.55 377.36 228.53 C 379.32 231.11 377.20 235.44 373.95 235.48 C 367.27 235.78 360.57 235.64 353.90 235.56 C 350.60 235.90 347.24 232.27 348.95 229.09 C 350.92 225.11 358.42 227.24 358.60 222.08 C 358.97 213.41 358.57 204.71 358.72 196.03 C 358.68 192.72 358.92 189.39 358.44 186.11 C 357.87 183.86 356.13 182.16 354.76 180.38 C 348.20 172.55 341.12 165.18 334.51 157.40 C 329.16 151.20 324.22 144.64 318.40 138.87 C 315.81 138.50 312.38 138.65 311.07 135.84 Z" />
</g>
<g id="#405461ff">
<path fill="#405461" opacity="1.00" d=" M 38.28 282.03 C 38.33 277.29 37.92 272.44 39.27 267.83 C 43.21 267.88 47.18 267.57 51.08 268.18 C 54.29 268.79 56.61 271.80 57.10 274.92 C 57.07 277.00 56.37 278.99 55.86 280.98 C 57.13 283.49 59.14 286.12 58.25 289.10 C 57.44 291.77 55.46 294.24 52.86 295.32 C 48.35 296.12 43.73 295.65 39.19 295.46 C 38.03 291.08 38.29 286.51 38.28 282.03 M 44.76 274.13 C 44.77 275.81 44.79 277.49 44.81 279.17 C 46.61 278.90 48.43 278.75 50.18 278.24 C 50.33 276.93 50.43 275.61 50.50 274.29 C 48.58 274.22 46.67 274.17 44.76 274.13 M 44.83 283.71 C 44.81 285.78 44.80 287.85 44.79 289.92 C 46.58 289.78 48.38 289.72 50.15 289.40 C 52.07 288.66 51.34 286.17 51.80 284.59 C 49.48 284.23 47.16 283.95 44.83 283.71 Z" />
</g>
<g id="#40555eff">
<path fill="#40555e" opacity="1.00" d=" M 72.47 282.49 C 75.04 277.25 77.23 271.81 80.18 266.77 C 83.69 271.63 85.89 277.24 88.57 282.56 C 90.26 286.29 92.32 289.93 93.12 293.98 C 92.81 296.39 90.07 295.89 88.34 295.68 C 86.92 294.12 86.03 292.18 84.99 290.37 C 81.98 290.37 78.97 290.36 75.95 290.38 C 74.56 292.76 72.98 295.02 71.07 297.01 C 69.95 295.98 68.75 295.04 67.82 293.84 C 68.66 289.80 70.78 286.20 72.47 282.49 M 77.32 285.13 C 79.32 285.12 81.33 285.11 83.33 285.10 C 82.38 282.67 81.39 280.26 80.36 277.87 C 79.34 280.29 78.33 282.71 77.32 285.13 Z" />
</g>
<g id="#3e5562ff">
<path fill="#3e5562" opacity="1.00" d=" M 102.10 270.75 C 102.03 268.21 105.79 266.07 107.25 268.69 C 110.88 273.16 113.86 278.13 117.34 282.72 C 117.51 278.39 116.83 273.97 117.70 269.69 C 118.57 266.92 122.96 266.89 123.20 270.03 C 123.54 278.45 123.40 286.90 123.37 295.33 C 121.83 295.45 120.29 295.57 118.75 295.67 C 115.08 290.49 111.65 285.13 108.24 279.77 C 107.87 285.01 109.24 290.59 107.29 295.58 C 105.21 296.15 101.74 295.99 101.78 293.09 C 101.70 285.65 101.63 278.18 102.10 270.75 Z" />
</g>
<g id="#3b515cff">
<path fill="#3b515c" opacity="1.00" d=" M 168.88 269.80 C 169.42 266.85 173.66 266.52 174.55 269.44 C 176.07 276.10 173.79 283.27 176.44 289.78 C 178.51 289.45 181.71 290.18 182.58 287.64 C 184.04 281.70 182.53 275.49 183.52 269.50 C 183.86 267.98 185.69 267.41 187.08 267.57 C 190.30 269.14 189.21 273.14 189.46 276.02 C 189.11 281.53 190.69 288.06 186.62 292.57 C 183.96 295.95 179.19 296.49 175.27 295.46 C 171.39 294.10 168.47 290.20 168.66 286.02 C 168.61 280.61 168.31 275.17 168.88 269.80 Z" />
</g>
<g id="#3d5561ff">
<path fill="#3d5561" opacity="1.00" d=" M 200.83 268.89 C 204.86 266.83 209.73 267.85 214.11 267.87 C 217.11 267.88 216.29 271.52 216.70 273.49 C 213.22 273.69 209.74 273.71 206.26 273.68 C 206.27 275.30 206.27 276.91 206.28 278.53 C 209.29 278.78 212.63 277.98 215.42 279.45 C 215.68 281.06 215.66 282.69 215.69 284.32 C 212.60 284.47 209.50 284.52 206.41 284.54 C 206.40 286.26 206.40 287.98 206.40 289.70 C 209.67 289.94 213.33 288.99 216.32 290.67 C 216.60 292.24 216.58 293.85 216.63 295.44 C 211.71 295.61 206.70 296.15 201.83 295.28 C 199.72 293.51 200.49 290.46 200.28 288.06 C 200.58 281.68 199.82 275.21 200.83 268.89 Z" />
</g>
<g id="#3e525fff">
<path fill="#3e525f" opacity="1.00" d=" M 227.43 273.39 C 226.46 271.65 226.44 268.63 228.74 268.04 C 233.97 267.43 239.26 267.90 244.52 267.82 C 244.72 269.65 244.98 271.51 244.80 273.37 C 243.16 273.92 241.46 274.26 239.78 274.67 C 239.67 280.76 240.02 286.86 239.62 292.94 C 239.72 295.73 235.87 296.69 234.19 294.77 C 233.11 293.89 233.52 292.29 233.32 291.09 C 233.27 285.59 233.36 280.10 233.35 274.60 C 231.37 274.24 229.35 274.01 227.43 273.39 Z" />
</g>
<g id="#40545dff">
<path fill="#40545d" opacity="1.00" d=" M 273.30 270.07 C 273.55 267.20 277.67 266.58 278.99 269.06 C 280.03 272.12 279.52 275.45 279.70 278.62 C 282.36 278.63 285.03 278.64 287.70 278.65 C 288.25 274.94 286.94 269.73 290.79 267.45 C 293.59 266.70 294.50 269.79 294.45 271.95 C 294.57 278.93 294.90 285.95 294.45 292.93 C 294.66 296.78 288.30 296.65 288.00 293.11 C 287.58 290.29 287.74 287.43 287.71 284.60 C 285.05 284.61 282.40 284.62 279.75 284.63 C 279.66 287.88 280.09 291.22 279.32 294.41 C 278.56 296.22 276.21 295.77 274.68 295.45 C 272.62 293.57 273.34 290.48 273.13 288.01 C 273.31 282.03 272.80 276.03 273.30 270.07 Z" />
</g>
<g id="#3e515eff">
<path fill="#3e515e" opacity="1.00" d=" M 309.60 283.67 C 312.27 277.97 314.65 272.11 317.93 266.72 C 322.05 273.02 324.80 280.07 328.30 286.71 C 329.78 289.36 330.61 292.31 330.78 295.35 C 329.15 295.50 327.52 295.64 325.89 295.76 C 324.87 293.96 323.86 292.17 322.85 290.37 C 319.66 290.35 316.48 290.35 313.31 290.38 C 312.38 292.11 311.62 293.99 310.26 295.45 C 308.56 295.92 306.51 295.70 305.48 294.09 C 306.33 290.43 308.10 287.08 309.60 283.67 M 315.17 285.13 C 317.22 285.14 319.28 285.14 321.34 285.15 C 320.23 282.63 319.12 280.11 317.98 277.60 C 316.99 280.09 316.06 282.60 315.17 285.13 Z" />
</g>
<g id="#3f5261ff">
<path fill="#3f5261" opacity="1.00" d=" M 341.47 270.18 C 341.95 267.11 346.43 266.43 347.32 269.68 C 348.21 276.25 347.27 282.95 348.13 289.55 C 351.13 289.91 354.75 288.70 357.27 290.77 C 357.87 292.30 357.73 294.16 356.54 295.38 C 352.20 295.93 347.74 295.91 343.39 295.45 C 341.04 294.91 341.21 291.96 341.16 290.09 C 341.37 283.45 340.91 276.79 341.47 270.18 Z" />
</g>
<g id="#394d58ff">
<path fill="#394d58" opacity="1.00" d=" M 368.61 270.09 C 368.89 267.17 373.69 266.35 374.21 269.58 C 374.99 276.19 374.32 282.90 374.55 289.55 C 377.62 289.54 380.69 289.54 383.77 289.61 C 383.82 291.55 383.83 293.50 383.79 295.44 C 379.17 295.55 374.45 296.15 369.90 295.18 C 367.87 293.34 368.59 290.34 368.40 287.93 C 368.58 281.98 368.11 276.01 368.61 270.09 Z" />
</g>
<g id="#3f525fff">
<path fill="#3f525f" opacity="1.00" d=" M 396.63 279.36 C 393.95 274.28 398.30 267.59 403.99 267.80 C 408.16 267.36 411.53 270.49 412.45 274.37 C 410.70 274.89 408.96 275.40 407.21 275.90 C 406.27 274.92 405.34 273.95 404.41 272.98 C 403.38 274.40 402.54 275.94 402.08 277.64 C 405.47 278.75 409.39 279.38 411.92 282.15 C 414.49 285.37 413.52 290.12 411.08 293.12 C 408.34 296.51 403.29 296.24 399.49 295.22 C 396.13 293.93 395.33 290.14 396.44 287.01 C 399.22 287.61 401.65 289.11 404.27 290.12 C 406.15 289.86 407.39 287.68 405.98 286.16 C 402.90 283.85 398.26 283.29 396.63 279.36 Z" />
</g>
<g id="#3c5262ff">
<path fill="#3c5262" opacity="1.00" d=" M 142.22 269.23 C 150.27 265.84 159.42 273.64 158.80 281.99 C 159.28 285.76 156.83 288.77 154.52 291.42 C 156.45 293.63 158.26 295.94 159.90 298.37 C 158.17 299.50 156.40 301.28 154.14 300.73 C 151.56 300.16 150.35 297.49 148.81 295.63 C 143.82 295.50 138.34 293.92 135.73 289.29 C 130.91 282.50 134.27 271.85 142.22 269.23 M 140.23 283.02 C 140.11 286.76 143.80 288.50 146.70 289.77 C 146.35 288.06 145.99 286.36 145.76 284.64 C 147.71 284.85 149.63 285.48 151.61 285.39 C 153.05 281.59 151.33 276.62 147.07 275.71 C 142.81 274.50 139.27 279.03 140.23 283.02 Z" />
</g>
<g id="#b9c6caff">
</g>
<g id="#bec9c9ff">
</g>
<g id="#b2bec9ff">
</g>
<g id="#bcc6ccff">
</g>
<g id="#b4c2c8ff">
</g>
</svg>
